<?xml version="1.0" encoding="UTF-8" standalone="no"?>
<!-- Created with Inkscape (http://www.inkscape.org/) -->

<svg
   xmlns:dc="http://purl.org/dc/elements/1.1/"
   xmlns:cc="http://creativecommons.org/ns#"
   xmlns:rdf="http://www.w3.org/1999/02/22-rdf-syntax-ns#"
   xmlns:svg="http://www.w3.org/2000/svg"
   xmlns="http://www.w3.org/2000/svg"
   xmlns:sodipodi="http://sodipodi.sourceforge.net/DTD/sodipodi-0.dtd"
   xmlns:inkscape="http://www.inkscape.org/namespaces/inkscape"
   width="250.99998"
   height="40"
   viewBox="0 0 66.410668 10.583333"
   version="1.1"
   id="svg5116"
   inkscape:version="0.92.2 (5c3e80d, 2017-08-06)"
   sodipodi:docname="Smyslova.svg">
  <defs
     id="defs5110" />
  <sodipodi:namedview
     id="base"
     pagecolor="#ffffff"
     bordercolor="#666666"
     borderopacity="1.0"
     inkscape:pageopacity="0.0"
     inkscape:pageshadow="2"
     inkscape:zoom="3.7941162"
     inkscape:cx="111.08037"
     inkscape:cy="7.1806083"
     inkscape:document-units="mm"
     inkscape:current-layer="layer1"
     showgrid="false"
     fit-margin-top="0"
     fit-margin-left="0"
     fit-margin-right="0"
     fit-margin-bottom="0"
     inkscape:window-width="1366"
     inkscape:window-height="745"
     inkscape:window-x="-8"
     inkscape:window-y="-8"
     inkscape:window-maximized="1"
     units="px" />
  <metadata
     id="metadata5113">
    <rdf:RDF>
      <cc:Work
         rdf:about="">
        <dc:format>image/svg+xml</dc:format>
        <dc:type
           rdf:resource="http://purl.org/dc/dcmitype/StillImage" />
        <dc:title></dc:title>
      </cc:Work>
    </rdf:RDF>
  </metadata>
  <g
     inkscape:label="Layer 1"
     inkscape:groupmode="layer"
     id="layer1"
     transform="translate(-33.356792,-119.20172)">
    <path
       inkscape:connector-curvature="0"
       class="cls-1"
       d="m 67.076205,128.60379 a 0.27962133,0.28241621 0 0 1 -0.260048,-0.40951 2.7962133,2.8241621 0 0 0 0.237678,-1.19179 c 0,-1.51377 -1.2555,-2.35819 -2.469056,-3.17436 -1.096116,-0.73994 -2.133511,-1.43751 -2.133511,-2.58976 a 1.8958326,1.9147819 0 0 1 1.979719,-2.00233 c 1.177206,0 2.035643,0.7597 2.041235,1.80464 a 2.0412357,2.0616385 0 0 1 -0.461375,1.41208 0.28498447,0.28783298 0 0 1 -0.439005,-0.36714 1.4484384,1.4629159 0 0 0 0.329953,-1.05341 c 0,-0.72581 -0.609575,-1.23135 -1.470808,-1.23135 a 1.3337938,1.3471254 0 0 0 -1.398107,1.4121 c 0,0.84724 0.869622,1.42902 1.879056,2.10965 1.275072,0.84722 2.723511,1.83288 2.723511,3.65727 a 3.3554559,3.3889945 0 0 1 -0.279621,1.43186 0.27962133,0.28241621 0 0 1 -0.279621,0.19205 z"
       id="path1549"
       style="fill:#cc9933;fill-opacity:1;stroke:#cc9933;stroke-width:0.06500024;stroke-miterlimit:4;stroke-dasharray:none;stroke-opacity:0" />
    <path
       inkscape:connector-curvature="0"
       class="cls-1"
       d="m 64.315745,129.75327 a 3.1459079,3.1459079 0 0 1 -2.128605,-1.02594 2.8839694,2.8839694 0 0 1 -0.768858,-2.11552 2.9342404,2.9342404 0 0 1 0.979399,-2.10208 0.27128276,0.27128276 0 0 1 0.361514,0.40458 2.4103634,2.4103634 0 0 0 -0.799369,1.72793 2.3468632,2.3468632 0 0 0 0.636723,1.7318 2.6008642,2.6008642 0 0 0 1.807007,0.85416 3.0215533,3.0215533 0 0 0 1.279943,-0.23546 0.27037525,0.27037525 0 0 1 0.213222,0.49693 3.5692429,3.5692429 0 0 1 -1.517576,0.26717 z"
       id="path1551"
       style="fill:#cc9933;fill-opacity:1;stroke:#cc9933;stroke-width:0.06500025;stroke-miterlimit:4;stroke-dasharray:none;stroke-opacity:0" />
    <path
       inkscape:connector-curvature="0"
       class="cls-1"
       d="m 68.386207,129.78225 c -0.859825,-0.007 -1.68317,-0.34089 -2.295717,-0.93134 -0.593677,-0.55763 -0.93038,-1.32732 -0.932889,-2.13255 -0.0096,-0.55515 0.131418,-1.10287 0.408308,-1.58751 0.180273,-0.29342 0.658885,0.0205 0.478613,0.26459 -0.229479,0.40416 -0.345186,0.86068 -0.3353,1.32292 0.0024,0.65955 0.278672,1.28982 0.76524,1.74626 0.520355,0.51064 1.228887,0.79482 1.965826,0.78846 1.279004,-0.0265 2.647241,-0.6985 2.647241,-2.50826 0,-1.46844 -1.254668,-2.28866 -2.468775,-3.07976 -1.08161,-0.71438 -2.128068,-1.38907 -2.128068,-2.49768 -0.0468,-1.08261 0.862051,-1.97313 1.96853,-1.92882 1.246557,0 1.808994,0.94457 1.814401,1.88119 0.02203,0.43086 -0.142963,0.85077 -0.454277,1.15624 l -0.0703,0.082 c -0.234349,0.27693 -0.658882,-0.067 -0.424532,-0.34396 l 0.07571,-0.0873 c 0.22183,-0.20508 0.339623,-0.49565 0.321778,-0.79376 0,-0.65087 -0.338002,-1.34408 -1.26278,-1.34408 -0.79939,-0.0386 -1.457896,0.60694 -1.416909,1.38906 0,0.82022 0.870697,1.38907 1.892818,2.04789 1.273596,0.83079 2.704025,1.77271 2.704025,3.52955 0,2.20134 -1.717056,3.01891 -3.188046,3.05066 z"
       id="path1553"
       style="fill:#cc9933;fill-opacity:1;stroke:#cc9933;stroke-width:0.06500027;stroke-miterlimit:4;stroke-dasharray:none;stroke-opacity:0"
       sodipodi:nodetypes="ccccccccsccccccccccccscc" />
    <path
       inkscape:connector-curvature="0"
       class="cls-1"
       d="m 66.826642,124.33379 a 0.26458435,0.26458435 0 0 1 -0.240772,-0.43921 2.1166748,2.1166748 0 0 1 0.91017,-0.70644 0.27022923,0.27022923 0 1 1 0.198438,0.50271 1.5875061,1.5875061 0 0 0 -0.701148,0.52917 0.26458435,0.26458435 0 0 1 -0.166688,0.11377 z"
       id="path1555"
       style="fill:#cc9933;fill-opacity:1;stroke:#cc9933;stroke-width:0.06500025;stroke-miterlimit:4;stroke-dasharray:none;stroke-opacity:0" />
  </g>
</svg>
